<?xml version="1.0" encoding="utf-8"?>
<!-- Generator: Adobe Illustrator 23.0.0, SVG Export Plug-In . SVG Version: 6.00 Build 0)  -->
<svg version="1.1" id="Layer_1" xmlns="http://www.w3.org/2000/svg" xmlns:xlink="http://www.w3.org/1999/xlink" x="0px" y="0px"
	 viewBox="0 0 480 480" style="enable-background:new 0 0 480 480;" xml:space="preserve">
<style type="text/css">
	.st0{fill:#697DBD;}
</style>
<path class="st0" d="M240,186c39.8,0,72-32.2,72-72s-32.2-72-72-72s-72,32.2-72,72C168,153.7,200.3,186,240,186z"/>
<path class="st0" d="M72,162c22.1,0,40-17.9,40-40S94.1,82,72,82s-40,17.9-40,40C32,144.1,49.9,162,72,162z"/>
<path class="st0" d="M408,162c22.1,0,40-17.9,40-40s-17.9-40-40-40s-40,17.9-40,40C368,144.1,385.9,162,408,162z"/>
<path class="st0" d="M440,162c-1.7,0-3.4,0.6-4.8,1.6L408,184l-27.2-20.4c-1.4-1-3.1-1.6-4.8-1.6c-13.2,0-25.5,6.5-32.9,17.4
	c-12.1-6.1-25.5-9.4-39.1-9.4c-2.1,0-4.2,0.8-5.7,2.3L240,230.7l-58.3-58.3c-1.5-1.5-3.5-2.3-5.7-2.3c-13.6,0.1-27,3.3-39.1,9.4
	c-7.4-10.9-19.7-17.4-32.9-17.4c-1.7,0-3.4,0.6-4.8,1.6L72,184l-27.2-20.4c-1.4-1-3.1-1.6-4.8-1.6c-22.1,0-40,17.9-40,40v71.1
	c0,8.3,4.3,16,11.3,20.4l48.9,30.6c3.8,2.3,8.2,3.5,12.7,3.5c3.7,0,7.4-0.8,10.7-2.5l4.4-2.2v36.7c0,9.5,5.6,18.1,14.3,21.9
	l121.5,54c10.3,4.6,22.1,4.6,32.4,0l121.5-54c8.7-3.8,14.3-12.4,14.3-21.9v-44.7l5.3,2.6c6.7,3.4,14.7,3.4,21.4,0l48-24
	c8.2-4,13.3-12.4,13.3-21.5V202C480,179.9,462.1,162,440,162z M76.4,310.8c-2.5,1.2-5.4,1.1-7.8-0.3l-48.8-30.5
	c-2.3-1.5-3.8-4-3.8-6.8V202c0-12.3,9.3-22.6,21.5-23.9l29.7,22.3c2.8,2.1,6.8,2.1,9.6,0l29.7-22.3c6.7,0.7,12.7,4.1,16.7,9.5
	c-0.5,0.4-1,0.9-1.5,1.3c-1.2,1-2.4,2-3.6,3c-1.5,1.3-3,2.7-4.5,4.1c-1.1,1.1-2.2,2.2-3.2,3.4c-1.3,1.5-2.6,3-3.9,4.6
	c-0.9,1.2-1.9,2.4-2.7,3.7c-1.2,1.7-2.2,3.4-3.3,5.1c-0.8,1.3-1.6,2.6-2.3,3.9c-1,1.8-1.8,3.7-2.6,5.6c-0.6,1.3-1.2,2.7-1.7,4.1
	c-0.8,2-1.4,4.1-2,6.1c-0.4,1.3-0.9,2.6-1.2,4c-0.6,2.3-1,4.7-1.4,7.1c-0.2,1.2-0.5,2.3-0.6,3.5c-0.4,3.6-0.7,7.2-0.7,10.8v47.1
	L76.4,310.8z M464,272.1c0,3.1-1.7,5.9-4.5,7.2l-48,24c-2.2,1.1-4.9,1.1-7.1,0L392,297v-39c0-3.6-0.2-7.3-0.7-10.9
	c-0.1-1.2-0.4-2.3-0.6-3.5c-0.4-2.4-0.8-4.7-1.4-7.1c-0.3-1.4-0.8-2.7-1.2-4c-0.6-2.1-1.2-4.1-2-6.1c-0.5-1.4-1.2-2.7-1.8-4.1
	c-0.8-1.9-1.7-3.7-2.6-5.5c-0.7-1.4-1.5-2.7-2.3-4c-1-1.7-2.1-3.4-3.2-5c-0.9-1.3-1.8-2.5-2.8-3.8c-1.2-1.6-2.5-3.1-3.8-4.5
	c-1.1-1.2-2.1-2.3-3.3-3.5c-1.4-1.4-2.9-2.8-4.4-4.1c-1.2-1-2.4-2.1-3.6-3.1c-0.5-0.4-1-0.9-1.5-1.3c4-5.4,10-8.8,16.7-9.5
	l29.7,22.3c2.8,2.1,6.8,2.1,9.6,0l29.7-22.3c12.2,1.3,21.5,11.6,21.5,23.9V272.1z"/>
</svg>
