<?xml version="1.0" encoding="utf-8"?>
<!-- Generator: Adobe Illustrator 23.0.0, SVG Export Plug-In . SVG Version: 6.00 Build 0)  -->
<svg version="1.1" id="Layer_1" xmlns="http://www.w3.org/2000/svg" xmlns:xlink="http://www.w3.org/1999/xlink" x="0px" y="0px"
	 viewBox="0 0 512 512" style="enable-background:new 0 0 512 512;" xml:space="preserve">
<style type="text/css">
	.st0{fill:#697DBD;}
</style>
<g>
	<g>
		<path class="st0" d="M397.6,88.9h-65.4c-4.5,0-8.2,3.7-8.2,8.2v65.4c0,4.5,3.7,8.2,8.2,8.2h24.5v30c0,8.7-7.1,19.1-15.1,22.3
			l-77.5,31V146.1c0-4.5-3.7-8.2-8.2-8.2s-8.2,3.7-8.2,8.2v119.7c0,0,0,55.3,0,55.3l-77.5-31c-8-3.2-15.1-13.6-15.1-22.3V237
			c18.6-3.8,32.7-20.3,32.7-40c0-22.5-18.3-40.9-40.9-40.9s-40.9,18.3-40.9,40.9c0,19.7,14.1,36.2,32.7,40v30.8
			c0,15.3,11.1,31.8,25.4,37.5l83.6,33.4v48.6c-30.7,4-54.5,30.3-54.5,62.1c0,34.5,28.1,62.6,62.6,62.6s62.6-28.1,62.6-62.6
			c0-31.8-23.8-58.1-54.5-62.1V333c0,0,0-61.5,0-61.5l83.6-33.4c14.2-5.7,25.4-22.1,25.4-37.5v-30h24.5c4.5,0,8.2-3.7,8.2-8.2V97.1
			C405.8,92.6,402.1,88.9,397.6,88.9z M147.1,221.5c-13.5,0-24.5-11-24.5-24.5c0-13.5,11-24.5,24.5-24.5s24.5,11,24.5,24.5
			C171.6,210.5,160.6,221.5,147.1,221.5z M302.3,449.4c0,25.5-20.8,46.3-46.3,46.3s-46.3-20.8-46.3-46.3s20.8-46.3,46.3-46.3
			S302.3,423.8,302.3,449.4z M389.4,154.3h-49v-49h49V154.3z"/>
	</g>
</g>
<g>
	<g>
		<path class="st0" d="M300.4,69L263.1,4.1C261.6,1.6,258.9,0,256,0c-2.9,0-5.6,1.6-7.1,4.1l-37.6,65.4c-1.5,2.5-1.4,5.6,0,8.2
			c1.5,2.5,4.2,4.1,7.1,4.1h29.4v31.7c0,4.5,3.7,8.2,8.2,8.2s8.2-3.7,8.2-8.2V81.7h29.4c4.5,0,8.2-3.7,8.2-8.2
			C301.8,71.8,301.3,70.3,300.4,69z M232.5,65.4L256,24.6l23.5,40.8H232.5z"/>
	</g>
</g>
</svg>
