<svg height="512pt" viewBox="-67 0 512 512" width="512pt" xmlns="http://www.w3.org/2000/svg"><path d="m369.796875 23.585938v432.875h-362.203125v-432.875c0-8.875 7.183594-16.058594 16.058594-16.058594h330.089844c8.871093 0 16.054687 7.183594 16.054687 16.058594zm0 0" fill="#d2d2d7"/><path d="m369.796875 23.585938v432.875h-332.097656v-432.875c0-8.875 7.1875-16.058594 16.058593-16.058594h299.984376c8.871093 0 16.054687 7.183594 16.054687 16.058594zm0 0" fill="#ebebf0"/><path d="m369.796875 408.449219v81.632812c0 7.949219-6.441406 14.390625-14.390625 14.390625h-299.800781c-16.941407 0-31.824219-8.769531-40.375-22.007812-2.929688-4.546875-5.117188-9.625-6.382813-15.054688-.824218-3.511718-1.253906-7.183594-1.253906-10.949218 0-3.734376.421875-7.355469 1.222656-10.839844 1.253906-5.429688 3.421875-10.496094 6.34375-15.050782 1.875-2.910156 4.054688-5.621093 6.492188-8.058593 8.683594-8.691407 20.683594-14.0625 33.953125-14.0625zm0 0" fill="#a0a0a5"/><path d="m369.796875 408.449219v81.632812c0 7.949219-6.441406 14.390625-14.390625 14.390625h-256.316406c-16.941406 0-31.824219-8.769531-40.375-22.007812-2.929688-4.546875-5.117188-9.625-6.382813-15.054688-.820312-3.511718-1.253906-7.183594-1.253906-10.949218 0-3.734376.421875-7.355469 1.226563-10.839844 1.253906-5.429688 3.421874-10.496094 6.339843-15.050782 1.878907-2.910156 4.054688-5.621093 6.496094-8.058593 8.679687-8.691407 20.683594-14.0625 33.949219-14.0625zm0 0" fill="#b9b9be"/><path d="m259.09375 321.703125h-18.046875c-3.441406 0-6.234375-2.792969-6.234375-6.234375v-160.117188c0-4.125-3.347656-7.472656-7.476562-7.472656h-102.113282c-4.128906 0-7.476562 3.347656-7.476562 7.472656v20.527344c0 4.128906 3.347656 7.472656 7.476562 7.472656h11.121094c3.441406 0 6.234375 2.792969 6.234375 6.238282v125.878906c0 3.441406-2.792969 6.234375-6.234375 6.234375h-18.046875c-4.125 0-7.472656 3.34375-7.472656 7.472656v20.527344c0 4.128906 3.347656 7.472656 7.472656 7.472656h140.796875c4.128906 0 7.472656-3.34375 7.472656-7.472656v-20.527344c0-4.125-3.34375-7.472656-7.472656-7.472656zm0 0" fill="#4172cc"/><path d="m207.691406 92.75c0 17.273438-14.003906 31.273438-31.273437 31.273438-17.273438 0-31.273438-14-31.273438-31.273438s14-31.273438 31.273438-31.273438c17.269531 0 31.273437 14 31.273437 31.273438zm0 0" fill="#4172cc"/><path d="m353.742188 0h-330.089844c-13.007813 0-23.5859378 10.578125-23.5859378 23.585938v62.472656c0 4.152344 3.3632818 7.527344 7.5273438 7.527344 4.152344 0 7.527344-3.375 7.527344-7.527344v-62.472656c0-4.707032 3.824218-8.53125 8.53125-8.53125h330.089844c4.703124 0 8.527343 3.824218 8.527343 8.53125v259.476562c0 4.152344 3.375 7.527344 7.527344 7.527344 4.164063 0 7.527344-3.375 7.527344-7.527344v-259.476562c0-13.007813-10.578125-23.585938-23.582031-23.585938zm0 0"/><path d="m369.796875 305.640625c-4.152344 0-7.527344 3.375-7.527344 7.527344v87.753906h-306.664062c-15.949219 0-30.339844 6.753906-40.484375 17.554687v-302.3125c0-4.152343-3.375-7.527343-7.527344-7.527343-4.164062 0-7.5273438 3.375-7.5273438 7.527343 0 371.3125-.4687502 343.582032 1.0937498 351.246094 1.0625 5.328125 2.890625 10.386719 5.378906 15.054688 9.34375 17.550781 27.828126 29.535156 49.066407 29.535156h314.191406c4.164063 0 7.527344-3.371094 7.527344-7.527344 0-59.128906 0-134.933594 0-191.304687 0-4.152344-3.363281-7.527344-7.527344-7.527344zm-7.527344 191.304687h-306.664062c-12.433594 0-23.585938-5.628906-31-14.480468h337.664062zm0-29.535156h-345.644531c-2.042969-7.375-1.96875-14.808594-.03125-21.789062h345.675781zm0-36.839844h-337.757812c7.417969-8.914062 18.597656-14.59375 31.09375-14.59375h306.664062zm0 0"/><path d="m150.105469 315.46875v-51.058594c0-4.15625-3.371094-7.527344-7.527344-7.527344s-7.527344 3.371094-7.527344 7.527344v49.765625h-16.753906c-8.269531 0-15 6.730469-15 15v20.527344c0 8.269531 6.730469 15 15 15h140.796875c8.269531 0 15-6.730469 15-15v-20.527344c0-8.273437-6.730469-15-15-15h-16.753906v-158.820312c0-8.273438-6.730469-15.003907-15.003906-15.003907h-102.113282c-8.273437 0-15.003906 6.730469-15.003906 15.003907v20.523437c0 8.273438 6.730469 15.003906 15 15.003906h9.832031v43.421876c0 4.15625 3.371094 7.527343 7.527344 7.527343s7.527344-3.371093 7.527344-7.527343v-44.714844c0-7.589844-6.175781-13.761719-13.761719-13.761719l-11.070312.050781-.050782-20.472656 102.0625-.050781v160.113281c0 7.589844 6.171875 13.761719 13.761719 13.761719l17.992187-.054688.054688 20.472657-140.742188.054687-.054687-20.472656h18.046875c7.585938 0 13.761719-6.171875 13.761719-13.761719zm0 0"/><path d="m215.21875 92.75c0-21.582031-17.554688-38.800781-38.800781-38.800781-21.394531 0-38.800781 17.40625-38.800781 38.800781s17.40625 38.800781 38.800781 38.800781 38.800781-17.40625 38.800781-38.800781zm-62.550781 0c0-13.09375 10.65625-23.746094 23.75-23.746094 12.984375 0 23.746093 10.507813 23.746093 23.746094 0 13.09375-10.652343 23.746094-23.746093 23.746094s-23.75-10.652344-23.75-23.746094zm0 0"/></svg>